<?xml version="1.0" encoding="iso-8859-1"?>
<!-- Uploaded to: SVG Repo, www.svgrepo.com, Generator: SVG Repo Mixer Tools -->
<svg fill="#000000" height="800px" width="800px" version="1.1" id="Layer_1" xmlns="http://www.w3.org/2000/svg" xmlns:xlink="http://www.w3.org/1999/xlink" 
	 viewBox="0 0 512 512" xml:space="preserve">
<g>
	<g>
		<path d="M403.394,108.606h-56.401c-4.184-23.395-14.544-44.663-29.349-62.061h85.749c12.853,0,23.273-10.42,23.273-23.273
			C426.667,10.42,416.247,0,403.394,0H108.606C95.753,0,85.333,10.42,85.333,23.273c0,0.003,0,0.005,0,0.008
			c0,0.002,0,0.005,0,0.008c0,12.853,10.42,23.273,23.273,23.273h108.606c0.251,0,0.503-0.005,0.751-0.012
			c38.658,0.334,71.236,26.514,81.33,62.057H108.606c-12.853,0-23.273,10.42-23.273,23.273c0,12.853,10.42,23.273,23.273,23.273
			h190.687c-10.159,35.773-43.096,62.061-82.081,62.061H108.606c-12.853,0-23.273,10.42-23.273,23.273c0,0.002,0,0.005,0,0.008
			c0,0.002,0,0.005,0,0.008c0,12.853,10.42,23.273,23.273,23.273h108.606c0.251,0,0.503-0.005,0.751-0.012
			c46.71,0.403,84.582,38.527,84.582,85.33v139.636c0,12.853,10.42,23.273,23.273,23.273c12.853,0,23.273-10.42,23.273-23.273
			V349.091c0-45.005-22.674-84.798-57.184-108.606c28.418-19.607,48.777-50.06,55.087-85.333h56.401
			c12.853,0,23.273-10.42,23.273-23.273C426.667,119.026,416.247,108.606,403.394,108.606z"/>
	</g>
</g>
</svg>